<svg width="24" height="24" viewBox="0 0 24 24" fill="none" xmlns="http://www.w3.org/2000/svg">
<g clip-path="url(#clip0_32_889)">
<path fill-rule="evenodd" clip-rule="evenodd" d="M10.6756 0.202637C8.56434 0.203305 6.50066 0.829984 4.74551 2.00344C2.99037 3.17689 1.62258 4.84442 0.815084 6.79519C0.00759249 8.74595 -0.203338 10.8924 0.208963 12.963C0.621264 15.0336 1.63828 16.9355 3.13142 18.4282C4.62456 19.9209 6.52678 20.9373 8.59754 21.3489C10.6683 21.7606 12.8146 21.549 14.7652 20.7408C16.7157 19.9327 18.3828 18.5644 19.5557 16.8089C20.7286 15.0534 21.3546 12.9895 21.3546 10.8782C21.3532 8.0467 20.2276 5.3316 18.2251 3.32973C16.2226 1.32787 13.5071 0.203084 10.6756 0.202637ZM10.6756 1.89141C12.453 1.89141 14.1906 2.41848 15.6684 3.40596C17.1463 4.39344 18.2982 5.79699 18.9784 7.43911C19.6585 9.08124 19.8365 10.8882 19.4898 12.6315C19.143 14.3747 18.2871 15.976 17.0303 17.2328C15.7734 18.4897 14.1721 19.3456 12.4289 19.6923C10.6856 20.0391 8.87865 19.8611 7.23652 19.1809C5.5944 18.5008 4.19085 17.3489 3.20337 15.871C2.21589 14.3931 1.68882 12.6556 1.68882 10.8782C1.68994 8.49511 2.63712 6.20993 4.32223 4.52482C6.00734 2.83971 8.29252 1.89253 10.6756 1.89141Z" fill="#A8A8A8"/>
<path fill-rule="evenodd" clip-rule="evenodd" d="M23.7536 22.3611L18.4542 17.0617C18.3763 16.9811 18.2831 16.9168 18.1801 16.8725C18.0771 16.8283 17.9663 16.805 17.8542 16.804C17.742 16.803 17.6309 16.8244 17.5271 16.8668C17.4233 16.9093 17.329 16.972 17.2498 17.0513C17.1705 17.1306 17.1078 17.2248 17.0653 17.3286C17.0229 17.4324 17.0015 17.5436 17.0025 17.6557C17.0034 17.7678 17.0267 17.8786 17.071 17.9816C17.1152 18.0846 17.1796 18.1778 17.2602 18.2557L22.5596 23.5525C22.6375 23.6332 22.7307 23.6975 22.8337 23.7418C22.9367 23.786 23.0475 23.8093 23.1596 23.8103C23.2717 23.8113 23.3829 23.7899 23.4867 23.7474C23.5905 23.705 23.6847 23.6423 23.764 23.563C23.8433 23.4837 23.906 23.3894 23.9485 23.2857C23.9909 23.1819 24.0123 23.0707 24.0113 22.9586C24.0103 22.8465 23.987 22.7357 23.9428 22.6327C23.8985 22.5296 23.8342 22.4365 23.7536 22.3586V22.3611Z" fill="#A8A8A8"/>
</g>
<defs>
<clipPath id="clip0_32_889">
<rect width="24" height="24" fill="white"/>
</clipPath>
</defs>
</svg>
