<svg width="7" height="11" viewBox="0 0 7 11" fill="none" xmlns="http://www.w3.org/2000/svg">
<path d="M0.875 0V5.44162C0.830375 5.45344 0.777438 5.4705 0.738063 5.48231C0.526313 5.5475 0.379312 5.61575 0.273438 5.6875C0.224246 5.71928 0.178371 5.75593 0.1365 5.79688C0.102375 5.83275 0.0546875 5.90625 0.0546875 5.90625L0 6.00206V7H0.4375V10.5H1.3125V7H4.8125V10.5H5.6875V7H6.125V6.00206L6.07031 5.90625C6.07031 5.90625 6.02219 5.83275 5.98806 5.79688C5.94633 5.75595 5.9006 5.71931 5.85156 5.6875C5.74569 5.61575 5.59869 5.5475 5.3865 5.48231C5.34713 5.4705 5.29462 5.45344 5.25 5.44162V0H4.375V0.4375H1.75V0H0.875ZM1.75 1.3125H2.625V5.26356C2.29338 5.27231 1.99588 5.28106 1.75 5.30469V1.3125ZM3.5 1.3125H4.375V5.30469C4.12869 5.28062 3.83162 5.27231 3.5 5.26356V1.3125Z" fill="black"/>
</svg>
