<svg width="12" height="20" viewBox="0 0 12 20" fill="none" xmlns="http://www.w3.org/2000/svg">
<path d="M3.11236 19.6129C2.36963 19.6129 1.86265 19.2277 1.888 18.5478L2.07305 9.00818C2.07305 8.70187 1.93616 8.48607 1.65225 8.37468C0.42789 7.87578 -0.066418 7.35366 0.00709453 5.86854L0.255516 0.679906C0.27833 0.306306 0.501403 0.102102 0.874035 0.102102C1.24667 0.102102 1.45453 0.317908 1.45453 0.691509L1.38102 5.75716C1.38102 6.05186 1.60409 6.24446 1.888 6.24446C2.20994 6.24446 2.42033 6.05186 2.42033 5.78036L2.50652 0.55692C2.50652 0.194922 2.75494 0.0023205 3.11236 0.0023205C3.46979 0.0023205 3.73088 0.194922 3.73088 0.55692L3.8044 5.78036C3.8044 6.05186 4.02747 6.24446 4.33673 6.24446C4.64599 6.24446 4.84371 6.05186 4.84371 5.75716L4.78287 0.691509C4.78287 0.317908 5.00595 0.102102 5.36337 0.102102C5.72079 0.102102 5.94386 0.306306 5.95654 0.679906L6.24045 5.86854C6.31396 7.35366 5.80698 7.87346 4.59529 8.37236C4.29871 8.48607 4.17449 8.70187 4.17449 9.00586L4.34687 18.5454C4.37222 19.2253 3.86523 19.6105 3.10983 19.6105L3.11236 19.6129ZM9.67272 12.4982C9.6854 12.1478 9.53584 11.8972 9.20123 11.6814L8.7196 11.3519C8.2481 11.0456 8.01489 10.6372 8.01489 10.0269V9.43747C8.01489 5.98225 8.98069 2.45741 10.4662 0.531394C10.7501 0.157794 10.9858 0 11.3204 0C11.655 0 11.9516 0.169396 11.9516 0.601009V18.5826C11.9516 19.2509 11.47 19.6129 10.6892 19.6129C9.90847 19.6129 9.42684 19.2277 9.45219 18.4689L9.67526 12.4982H9.67272Z" fill="#007AFF"/>
</svg>
