<svg width="17" height="17" viewBox="0 0 17 17" fill="none" xmlns="http://www.w3.org/2000/svg">
<path d="M7.04556 9.39408H1.17426C0.841557 9.39408 0.562866 9.28135 0.338191 9.05589C0.113516 8.83044 0.000786889 8.55175 4.04917e-06 8.21982C-0.000778791 7.8879 0.11195 7.60921 0.338191 7.38375C0.564432 7.15829 0.843123 7.04556 1.17426 7.04556H7.04556V1.17426C7.04556 0.841557 7.15829 0.562866 7.38375 0.338191C7.60921 0.113516 7.8879 0.000786889 8.21982 4.04917e-06C8.55175 -0.000778791 8.83083 0.11195 9.05707 0.338191C9.28331 0.564432 9.39565 0.843123 9.39408 1.17426V7.04556H15.2654C15.5981 7.04556 15.8772 7.15829 16.1026 7.38375C16.3281 7.60921 16.4404 7.8879 16.4396 8.21982C16.4389 8.55175 16.3261 8.83083 16.1015 9.05707C15.8768 9.28331 15.5981 9.39565 15.2654 9.39408H9.39408V15.2654C9.39408 15.5981 9.28135 15.8772 9.05589 16.1026C8.83044 16.3281 8.55175 16.4404 8.21982 16.4396C7.8879 16.4389 7.60921 16.3261 7.38375 16.1015C7.15829 15.8768 7.04556 15.5981 7.04556 15.2654V9.39408Z" fill="black"/>
</svg>
